<svg xmlns="http://www.w3.org/2000/svg" viewBox="0 -117.473 933.3837400000001 161.964" role="img" aria-label="The Dimensions">
<g transform="translate(8,0)">
<g class="the" fill="#9a8777"><path d="M59.11542 -73.19052V-58.9069H39.723060000000004V0.0H21.8946V-58.9069H2.50224V-73.19052Z M133.55706 -73.19052V0.0H115.7286V-30.131140000000002H87.99544V0.0H70.16698V-73.19052H87.99544V-44.519020000000005H115.7286V-73.19052Z M166.29470000000003 -58.9069V-44.101980000000005H190.17024000000004V-30.339660000000002H166.29470000000003V-14.28362H193.29804000000001V0.0H148.46624000000003V-73.19052H193.29804000000001V-58.9069Z"/></g>
<g class="dim" fill="#231f20"><path d="M312.36296000000004 -36.59526Q312.36296000000004 -25.85648 307.61913000000004 -17.51568Q302.87530000000004 -9.17488 294.16959 -4.58744Q285.46388 0.0 273.99528 0.0H246.5749V-73.19052H273.99528Q285.56814 -73.19052 294.22172 -68.60308Q302.87530000000004 -64.01564 307.61913000000004 -55.72697000000001Q312.36296000000004 -47.438300000000005 312.36296000000004 -36.59526ZM294.22172 -36.59526Q294.22172 -46.70848 288.59168 -52.33852Q282.96164 -57.968560000000004 272.84842000000003 -57.968560000000004H264.40336V-15.430480000000001H272.84842000000003Q282.96164 -15.430480000000001 288.59168 -20.95626Q294.22172 -26.48204 294.22172 -36.59526Z M342.28558 -73.19052V0.0H324.45712V-73.19052Z M440.18572 -73.19052V0.0H422.35726V-43.893460000000005L405.98844 0.0H391.60056000000003L375.12748 -43.99772V0.0H357.29902V-73.19052H378.35954L398.89876000000004 -22.52016L419.22946 -73.19052Z M472.92336 -58.9069V-44.101980000000005H496.7989V-30.339660000000002H472.92336V-14.28362H499.92670000000004V0.0H455.0949V-73.19052H499.92670000000004V-58.9069Z M579.0600400000001 0.0H561.23158L531.41322 -45.144580000000005V0.0H513.5847600000001V-73.19052H531.41322L561.23158 -27.83742V-73.19052H579.0600400000001Z M591.98828 -21.8946H610.9636Q611.3806400000001 -17.82846 613.77862 -15.691130000000001Q616.1766 -13.5538 620.03422 -13.5538Q623.9961000000001 -13.5538 626.2898200000001 -15.378350000000001Q628.5835400000001 -17.2029 628.5835400000001 -20.43496Q628.5835400000001 -23.14572 626.75899 -24.91814Q624.93444 -26.69056 622.2758100000001 -27.83742Q619.6171800000001 -28.984280000000002 614.7169600000001 -30.443920000000002Q607.62728 -32.63338 603.1441 -34.82284Q598.66092 -37.0123 595.42886 -41.28696000000001Q592.1968 -45.561620000000005 592.1968 -52.442780000000006Q592.1968 -62.66026 599.5992600000001 -68.44669Q607.0017200000001 -74.23312 618.8873600000001 -74.23312Q630.98152 -74.23312 638.3839800000001 -68.44669Q645.7864400000001 -62.66026 646.3077400000001 -52.33852H627.01964Q626.8111200000001 -55.88336 624.4131400000001 -57.916430000000005Q622.01516 -59.9495 618.2618 -59.9495Q615.0297400000001 -59.9495 613.0488 -58.22921Q611.06786 -56.50892 611.06786 -53.276860000000006Q611.06786 -49.732020000000006 614.40418 -47.75108Q617.7405 -45.770140000000005 624.83018 -43.476420000000005Q631.9198600000001 -41.07844 636.3509100000001 -38.888980000000004Q640.78196 -36.69952 644.0140200000001 -32.52912Q647.24608 -28.35872 647.24608 -21.79034Q647.24608 -15.534740000000001 644.0661500000001 -10.426Q640.8862200000001 -5.31726 634.83914 -2.29372Q628.79206 0.72982 620.55552 0.72982Q612.5275 0.72982 606.1676400000001 -1.87668Q599.8077800000001 -4.48318 596.0022900000001 -9.59192Q592.1968 -14.700660000000001 591.98828 -21.8946Z M678.1070400000001 -73.19052V0.0H660.27858V-73.19052Z M690.09694 -36.80378Q690.09694 -47.54256 695.15355 -56.09188Q700.2101600000001 -64.6412 708.8116100000001 -69.43716Q717.4130600000001 -74.23312 727.7348000000001 -74.23312Q738.05654 -74.23312 746.65799 -69.43716Q755.25944 -64.6412 760.2117900000001 -56.09188Q765.1641400000001 -47.54256 765.1641400000001 -36.80378Q765.1641400000001 -26.065 760.15966 -17.46355Q755.1551800000001 -8.8621 746.6058600000001 -4.06614Q738.05654 0.72982 727.7348000000001 0.72982Q717.4130600000001 0.72982 708.8116100000001 -4.06614Q700.2101600000001 -8.8621 695.15355 -17.46355Q690.09694 -26.065 690.09694 -36.80378ZM747.0229 -36.80378Q747.0229 -46.49996 741.75777 -52.28639Q736.49264 -58.07282 727.7348000000001 -58.07282Q718.8727000000001 -58.07282 713.6075700000001 -52.33852Q708.34244 -46.604220000000005 708.34244 -36.80378Q708.34244 -27.1076 713.6075700000001 -21.321170000000002Q718.8727000000001 -15.534740000000001 727.7348000000001 -15.534740000000001Q736.49264 -15.534740000000001 741.75777 -21.3733Q747.0229 -27.21186 747.0229 -36.80378Z M842.62932 0.0H824.8008600000001L794.9825000000001 -45.144580000000005V0.0H777.15404V-73.19052H794.9825000000001L824.8008600000001 -27.83742V-73.19052H842.62932Z M855.5575600000001 -21.8946H874.5328800000001Q874.9499200000001 -17.82846 877.3479000000001 -15.691130000000001Q879.74588 -13.5538 883.6035 -13.5538Q887.5653800000001 -13.5538 889.8591000000001 -15.378350000000001Q892.1528200000001 -17.2029 892.1528200000001 -20.43496Q892.1528200000001 -23.14572 890.3282700000001 -24.91814Q888.50372 -26.69056 885.84509 -27.83742Q883.1864600000001 -28.984280000000002 878.2862400000001 -30.443920000000002Q871.1965600000001 -32.63338 866.7133800000001 -34.82284Q862.2302000000001 -37.0123 858.9981400000001 -41.28696000000001Q855.7660800000001 -45.561620000000005 855.7660800000001 -52.442780000000006Q855.7660800000001 -62.66026 863.1685400000001 -68.44669Q870.5710000000001 -74.23312 882.4566400000001 -74.23312Q894.5508000000001 -74.23312 901.9532600000001 -68.44669Q909.3557200000001 -62.66026 909.8770200000001 -52.33852H890.5889200000001Q890.3804000000001 -55.88336 887.98242 -57.916430000000005Q885.5844400000001 -59.9495 881.83108 -59.9495Q878.5990200000001 -59.9495 876.6180800000001 -58.22921Q874.63714 -56.50892 874.63714 -53.276860000000006Q874.63714 -49.732020000000006 877.97346 -47.75108Q881.30978 -45.770140000000005 888.3994600000001 -43.476420000000005Q895.4891400000001 -41.07844 899.92019 -38.888980000000004Q904.3512400000001 -36.69952 907.5833 -32.52912Q910.81536 -28.35872 910.81536 -21.79034Q910.81536 -15.534740000000001 907.63543 -10.426Q904.4555000000001 -5.31726 898.4084200000001 -2.29372Q892.36134 0.72982 884.1248 0.72982Q876.0967800000001 0.72982 869.73692 -1.87668Q863.3770600000001 -4.48318 859.5715700000001 -9.59192Q855.7660800000001 -14.700660000000001 855.5575600000001 -21.8946Z"/></g>
</g>
</svg>