<?xml version="1.0" encoding="utf-8"?>
<!-- Generator: Adobe Illustrator 27.3.1, SVG Export Plug-In . SVG Version: 6.00 Build 0)  -->
<svg version="1.1" id="Layer_1" xmlns="http://www.w3.org/2000/svg" xmlns:xlink="http://www.w3.org/1999/xlink" x="0px" y="0px"
	 viewBox="0 1 303 33" style="" xml:space="preserve">
<style type="text/css">
	.st0{fill:#FFFFFF;}
	.st1{fill:#010101;}
	.st2{fill:#58595B;}
	.st3{fill:none;stroke:#000000;stroke-width:0.5;stroke-miterlimit:10;}
	.st4{fill:#998776;}
	.st5{fill:#414042;}
</style>
<g>
	<path class="st4" d="M10.4,9.3H3.2V4.8h19.6v4.6h-7.2V30h-5.2V9.3z"/>
	<path class="st4" d="M26.6,4.8h5.2v12.9h10.8V4.8h5.2V30h-5.2v-7.7H31.7V30h-5.2V4.8z"/>
	<path class="st4" d="M53,4.8h16.7v4.6H58.1v8h10.1v4.4H58.1v3.6h12V30H53V4.8z"/>
	<path d="M83.1,4.8h7.7c7.7,0,13.3,5.1,13.3,12.6c0,7.4-5.5,12.6-13.3,12.6h-7.7V4.8z M90.6,25.4c5.6,0,8.1-3.3,8.1-8s-2.6-8-8.1-8
		h-2.3v16.1H90.6z"/>
	<path d="M108.6,4.8h5.2V30h-5.2V4.8z"/>
	<path d="M119.1,4.5h0.4L132,18.2l12.2-13.6h0.4V30h-5v-9.4c0-1.7,0.2-4.4,0.2-4.4s-1.5,2.2-2.7,3.6l-5,5.6h-0.5l-5-5.6
		c-1.2-1.3-2.7-3.6-2.7-3.6s0.2,2.7,0.2,4.4V30h-5V4.5z"/>
	<path d="M149.9,4.8h16.7v4.6h-11.5v8h10.1v4.4h-10.1v3.6h12V30h-17.2V4.8z"/>
	<path d="M179.4,18.3c-1.3-1.2-3-3.4-3-3.4s0.4,2.8,0.4,4.6V30h-4.9V4.6h0.5l12.7,11.9c1.2,1.1,3,3.4,3,3.4s-0.3-2.9-0.3-4.6V4.8
		h4.9v25.4h-0.5L179.4,18.3z"/>
	<path d="M195.7,25l4.2-2.4c1.1,1.8,2.6,3.1,5.1,3.1c2.1,0,3.5-1.1,3.5-2.6c0-1.8-1.4-2.4-3.8-3.4l-1.3-0.6
		c-3.7-1.6-6.2-3.6-6.2-7.8c0-3.9,3-6.9,7.6-6.9c3.3,0,5.7,1.1,7.4,4.1l-4,2.6c-0.9-1.6-1.9-2.2-3.3-2.2c-1.5,0-2.5,1-2.5,2.2
		c0,1.6,1,2.2,3.2,3.1l1.3,0.6c4.4,1.9,6.9,3.8,6.9,8.1c0,4.7-3.7,7.2-8.6,7.2C200.3,30.3,197.2,28,195.7,25z"/>
	<path d="M217.8,4.8h5.2V30h-5.2V4.8z"/>
	<path d="M227.5,17.4c0-7.4,5.8-12.9,13-12.9c7.3,0,13,5.5,13,12.9c0,7.4-5.8,12.9-13,12.9C233.3,30.3,227.5,24.8,227.5,17.4z
		 M248.2,17.4c0-4.7-3.1-8.3-7.7-8.3c-4.6,0-7.7,3.6-7.7,8.3s3.1,8.3,7.7,8.3C245.1,25.7,248.2,22.1,248.2,17.4z"/>
	<path d="M265.5,18.3c-1.3-1.2-3-3.4-3-3.4s0.4,2.8,0.4,4.6V30H258V4.6h0.5l12.7,11.9c1.2,1.1,3,3.4,3,3.4s-0.3-2.9-0.3-4.6V4.8h4.9
		v25.4h-0.5L265.5,18.3z"/>
	<path d="M281.8,25l4.2-2.4c1.1,1.8,2.6,3.1,5.1,3.1c2.1,0,3.5-1.1,3.5-2.6c0-1.8-1.4-2.4-3.8-3.4l-1.3-0.6
		c-3.7-1.6-6.2-3.6-6.2-7.8c0-3.9,3-6.9,7.6-6.9c3.3,0,5.7,1.1,7.4,4.1l-4,2.6c-0.9-1.6-1.9-2.2-3.3-2.2c-1.5,0-2.5,1-2.5,2.2
		c0,1.6,1,2.2,3.2,3.1l1.3,0.6c4.4,1.9,6.9,3.8,6.9,8.1c0,4.7-3.7,7.2-8.6,7.2C286.4,30.3,283.3,28,281.8,25z"/>
</g>
<g>
</g>
</svg>
